<svg xmlns="http://www.w3.org/2000/svg" width="308.0605163574219" height="284.3870849609375" viewBox="-150.36912536621094 -107.38895416259766 308.0605163574219 284.3870849609375"><title>Neo4j Graph Visualization</title><desc>Created using Neo4j (http://www.neo4j.com/)</desc><g class="layer relationships"><g class="relationship" transform="translate(111.58536590103635 -25.158208817587067) rotate(500.43600991464905)"><path class="b-outline" fill="#A5ABB6" stroke="none" d="M 24.018736134675446,6.953439040707552 L 24.277555179777966,5.987513214418485 A 182.24832245666528 182.24832245666528 0 0 0 46.638692034520176,10.501095124472926 L 46.50256897121501,11.49178706026143 A 183.24832245666528 183.24832245666528 0 0 1 24.018736134675446,6.953439040707552 Z M 92.06827114187168,12.033490467741387 L 91.95573871103755,11.039842415355366 A 182.24832245666528 182.24832245666528 0 0 0 114.41785906734106,7.059137428268896 L 113.71051153428472,4.143719882276708 L 121.33839126349889,5.894562775469474 L 115.36098911141617,10.946360822925147 L 114.65364157835984,8.030943276932959 A 183.24832245666528 183.24832245666528 0 0 1 92.06827114187168,12.033490467741387"/><text text-anchor="middle" pointer-events="none" font-size="8px" fill="#000000" x="69.27445987042368" y="15.684561294979318" transform="rotate(180 69.27445987042368 12.684561294979318)" font-family="Helvetica Neue, Helvetica, Arial, sans-serif">ACTED_IN</text></g><g class="relationship" transform="translate(-119.88198228164735 147.99813671271758) rotate(326.00080880854665)"><path class="b-outline" fill="#A5ABB6" stroke="none" d="M 24.018736134675446,6.953439040707552 L 24.277555179777966,5.987513214418485 A 178.59054499785245 178.59054499785245 0 0 0 45.713558791836746,10.344402754966865 L 45.574768517643214,11.334724551045923 A 179.59054499785245 179.59054499785245 0 0 1 24.018736134675446,6.953439040707552 Z M 91.13805492698216,11.883084845054242 L 91.02313871339884,10.889709657194345 A 178.59054499785245 178.59054499785245 0 0 0 112.5577897696536,7.049977738156306 L 111.85129771650993,4.134352765899954 L 119.47866338044236,5.88743377619716 L 113.49977917384514,10.937477701164777 L 112.79328712070148,8.021852728908424 A 179.59054499785245 179.59054499785245 0 0 1 91.13805492698216,11.883084845054242"/><text text-anchor="middle" pointer-events="none" font-size="8px" fill="#000000" x="68.34496672985047" y="15.559869739112912" font-family="Helvetica Neue, Helvetica, Arial, sans-serif">ACTED_IN</text></g><g class="relationship" transform="translate(1.207183940571894 -78.38895050682865) rotate(450.74277509514417)"><path class="b-outline" fill="#A5ABB6" stroke="none" d="M 24.018736134675446,6.953439040707552 L 24.277555179777966,5.987513214418485 A 182.97502542104422 182.97502542104422 0 0 0 46.82256944970763,10.532081398195544 L 46.68696401923941,11.52284432000252 A 183.97502542104422 183.97502542104422 0 0 1 24.018736134675446,6.953439040707552 Z M 92.25312326995646,12.063243818901356 L 92.14105291320067,11.06954354460504 A 182.97502542104422 182.97502542104422 0 0 0 114.78750506130169,7.0609311273088435 L 114.07999000412148,4.145554231629093 L 121.7079703274178,5.895958809835001 L 115.73085847087528,10.94810032154851 L 115.02334341369507,8.03272342586876 A 183.97502542104422 183.97502542104422 0 0 1 92.25312326995646,12.063243818901356"/><text text-anchor="middle" pointer-events="none" font-size="8px" fill="#000000" x="69.45917674666106" y="15.709334337970631" transform="rotate(180 69.45917674666106 12.709334337970631)" font-family="Helvetica Neue, Helvetica, Arial, sans-serif">ACTED_IN</text></g><g class="relationship" transform="translate(128.69135379634344 130.2414272743051) rotate(205.83468147880808)"><path class="b-outline" fill="#A5ABB6" stroke="none" d="M 25 0.5 L 52.11187290620208 0.5 L 52.11187290620208 -0.5 L 25 -0.5 Z M 84.63140415620208 0.5 L 111.74327706240416 0.5 L 111.74327706240416 3.5 L 118.74327706240416 0 L 111.74327706240416 -3.5 L 111.74327706240416 -0.5 L 84.63140415620208 -0.5 Z"/><text text-anchor="middle" pointer-events="none" font-size="8px" fill="#000000" x="68.37163853120208" y="3" transform="rotate(180 68.37163853120208 0)" font-family="Helvetica Neue, Helvetica, Arial, sans-serif">RATED</text></g><g class="relationship" transform="translate(-0.6855242217106078 67.60155870052337) rotate(213.91081283964394)"><path class="b-outline" fill="#A5ABB6" stroke="none" d="M 25 0.5 L 45.75989014329356 0.5 L 45.75989014329356 -0.5 L 25 -0.5 Z M 92.65832764329356 0.5 L 113.41821778658712 0.5 L 113.41821778658712 3.5 L 120.41821778658712 0 L 113.41821778658712 -3.5 L 113.41821778658712 -0.5 L 92.65832764329356 -0.5 Z"/><text text-anchor="middle" pointer-events="none" font-size="8px" fill="#000000" x="69.20910889329356" y="3" transform="rotate(180 69.20910889329356 0)" font-family="Helvetica Neue, Helvetica, Arial, sans-serif">IN_GENRE</text></g><g class="relationship" transform="translate(111.58536590103635 -25.158208817587067) rotate(500.43600991464905)"><path class="b-outline" fill="#A5ABB6" stroke="none" d="M 24.018736134675446,-6.953439040707552 L 24.277555179777966,-5.987513214418485 A 182.24832245666528 182.24832245666528 0 0 1 45.98277586594567,-10.409756402030382 L 45.84305377819006,-11.399947160517456 A 183.24832245666528 183.24832245666528 0 0 0 24.018736134675446,-6.953439040707552 Z M 92.72978328805506,-11.95735547271596 L 92.61364093524558,-10.964122894774704 A 182.24832245666528 182.24832245666528 0 0 1 114.41785906734106,-7.059137428268896 L 113.71051153428472,-4.143719882276708 L 121.33839126349889,-5.894562775469474 L 115.36098911141617,-10.946360822925147 L 114.65364157835984,-8.030943276932959 A 183.24832245666528 183.24832245666528 0 0 0 92.72978328805506,-11.95735547271596"/><text text-anchor="middle" pointer-events="none" font-size="8px" fill="#000000" x="69.27445987042367" y="-9.684561294979318" transform="rotate(180 69.27445987042367 -12.684561294979318)" font-family="Helvetica Neue, Helvetica, Arial, sans-serif">DIRECTED</text></g><g class="relationship" transform="translate(1.207183940571894 -78.38895050682865) rotate(450.74277509514417)"><path class="b-outline" fill="#A5ABB6" stroke="none" d="M 24.018736134675446,-6.953439040707552 L 24.277555179777966,-5.987513214418485 A 182.97502542104422 182.97502542104422 0 0 1 46.16659786258194,-10.44108912099648 L 46.02740739866111,-11.431354749377817 A 183.97502542104422 183.97502542104422 0 0 0 24.018736134675446,-6.953439040707552 Z M 92.91466414768607,-11.987422025368716 L 92.79899797200747,-10.994133881976325 A 182.97502542104422 182.97502542104422 0 0 1 114.78750506130169,-7.0609311273088435 L 114.07999000412148,-4.145554231629093 L 121.7079703274178,-5.895958809835001 L 115.73085847087528,-10.94810032154851 L 115.02334341369507,-8.03272342586876 A 183.97502542104422 183.97502542104422 0 0 0 92.91466414768607,-11.987422025368716"/><text text-anchor="middle" pointer-events="none" font-size="8px" fill="#000000" x="69.45917674666104" y="-9.709334337970631" transform="rotate(180 69.45917674666104 -12.709334337970631)" font-family="Helvetica Neue, Helvetica, Arial, sans-serif">DIRECTED</text></g><g class="relationship" transform="translate(-119.88198228164735 147.99813671271758) rotate(326.00080880854665)"><path class="b-outline" fill="#A5ABB6" stroke="none" d="M 24.018736134675446,-6.953439040707552 L 24.277555179777966,-5.987513214418485 A 178.59054499785245 178.59054499785245 0 0 1 45.057931165096164,-10.251279022923967 L 44.91546976919376,-11.241079381924493 A 179.59054499785245 179.59054499785245 0 0 0 24.018736134675446,-6.953439040707552 Z M 91.79941644956298,-11.80533400032374 L 91.68081762828675,-10.812391746417745 A 178.59054499785245 178.59054499785245 0 0 1 112.5577897696536,-7.049977738156306 L 111.85129771650993,-4.134352765899954 L 119.47866338044236,-5.88743377619716 L 113.49977917384514,-10.937477701164777 L 112.79328712070148,-8.021852728908424 A 179.59054499785245 179.59054499785245 0 0 0 91.79941644956298,-11.80533400032374"/><text text-anchor="middle" pointer-events="none" font-size="8px" fill="#000000" x="68.34496672985044" y="-9.559869739112912" font-family="Helvetica Neue, Helvetica, Arial, sans-serif">DIRECTED</text></g></g><g class="layer nodes"><g class="node" aria-label="graph-node-1" transform="translate(-0.6855242217106078,67.60155870052337)"><circle class="b-outline" cx="0" cy="0" r="25" fill="#C990C0" stroke="#b261a5" stroke-width="2px"/><text class="caption" text-anchor="middle" pointer-events="none" x="0" y="5" font-size="10px" fill="#FFFFFF" font-family="Helvetica Neue, Helvetica, Arial, sans-serif"> Movie</text></g><g class="node" aria-label="graph-node-3" transform="translate(128.69135379634344,130.2414272743051)"><circle class="b-outline" cx="0" cy="0" r="25" fill="#F79767" stroke="#f36924" stroke-width="2px"/><text class="caption" text-anchor="middle" pointer-events="none" x="0" y="5" font-size="10px" fill="#FFFFFF" font-family="Helvetica Neue, Helvetica, Arial, sans-serif"> User</text></g><g class="node" aria-label="graph-node-4" transform="translate(111.58536590103635,-25.158208817587067)"><circle class="b-outline" cx="0" cy="0" r="25" fill="#57C7E3" stroke="#23b3d7" stroke-width="2px"/><text class="caption" text-anchor="middle" pointer-events="none" x="0" y="5" font-size="10px" fill="#2A2C34" font-family="Helvetica Neue, Helvetica, Arial, sans-serif"> Actor</text></g><g class="node" aria-label="graph-node-5" transform="translate(1.207183940571894,-78.38895050682865)"><circle class="b-outline" cx="0" cy="0" r="25" fill="#F16667" stroke="#eb2728" stroke-width="2px"/><text class="caption" text-anchor="middle" pointer-events="none" x="0" y="5" font-size="10px" fill="#FFFFFF" font-family="Helvetica Neue, Helvetica, Arial, sans-serif"> Director</text></g><g class="node" aria-label="graph-node-2" transform="translate(-121.36912295922711,-13.52751783797414)"><circle class="b-outline" cx="0" cy="0" r="25" fill="#D9C8AE" stroke="#c0a378" stroke-width="2px"/><text class="caption" text-anchor="middle" pointer-events="none" x="0" y="5" font-size="10px" fill="#2A2C34" font-family="Helvetica Neue, Helvetica, Arial, sans-serif"> Genre</text></g><g class="node" aria-label="graph-node-6" transform="translate(-119.88198228164735,147.99813671271758)"><circle class="b-outline" cx="0" cy="0" r="25" fill="#8DCC93" stroke="#5db665" stroke-width="2px"/><text class="caption" text-anchor="middle" pointer-events="none" x="0" y="5" font-size="10px" fill="#2A2C34" font-family="Helvetica Neue, Helvetica, Arial, sans-serif"> Person</text></g></g></svg>